<?xml version="1.0" standalone="no"?>
<!DOCTYPE svg PUBLIC "-//W3C//DTD SVG 20010904//EN"
 "http://www.w3.org/TR/2001/REC-SVG-20010904/DTD/svg10.dtd">
<svg version="1.0" xmlns="http://www.w3.org/2000/svg"
 width="259.000000pt" height="194.000000pt" viewBox="0 0 259.000000 194.000000"
 preserveAspectRatio="xMidYMid meet">
<metadata>
Created by potrace 1.10, written by Peter Selinger 2001-2011
</metadata>
<g transform="translate(0.000000,194.000000) scale(0.100000,-0.100000)"
fill="#000000" stroke="none">
<path d="M1154 1595 c-2 -5 -9 -36 -16 -68 -11 -51 -17 -60 -44 -72 -30 -12
-35 -11 -91 25 l-60 38 -99 -99 -98 -98 38 -57 c57 -85 40 -123 -63 -143 l-61
-12 0 -139 0 -139 58 -11 c75 -16 89 -24 97 -59 5 -24 -1 -41 -31 -86 l-38
-56 99 -99 98 -99 58 39 57 39 40 -15 c28 -11 38 -21 36 -33 -2 -9 2 -38 9
-64 l12 -48 140 0 140 0 12 48 c7 26 11 55 9 64 -2 12 8 21 34 32 37 14 38 14
97 -24 l60 -37 98 98 98 98 -33 54 c-18 29 -36 55 -40 58 -12 8 18 68 37 73
10 3 42 11 71 17 l52 12 0 138 0 138 -52 12 c-29 6 -60 14 -69 16 -8 2 -23 20
-32 39 l-16 34 39 60 c22 33 40 64 40 68 0 5 -39 48 -87 95 l-88 88 -64 -41
c-62 -39 -64 -40 -100 -26 -34 14 -37 19 -51 82 l-15 66 -139 2 c-85 1 -140
-2 -142 -8z m267 -84 c10 -29 23 -59 29 -66 8 -10 1 -11 -36 -4 -64 12 -180
12 -229 0 -22 -6 -43 -11 -46 -11 -4 0 2 17 12 37 10 21 19 43 19 51 0 7 5 22
11 33 9 18 19 19 116 17 l106 -3 18 -54z m-407 -77 c25 -14 46 -29 46 -34 0
-5 -15 -18 -33 -29 -31 -19 -99 -89 -155 -158 -12 -15 -21 -23 -20 -18 2 6
-10 36 -27 67 l-30 58 70 70 c38 38 77 70 86 70 9 0 37 -12 63 -26z m718 -31
c32 -32 58 -63 58 -70 0 -12 -58 -123 -65 -123 -1 0 -23 25 -49 56 -25 31 -68
74 -96 96 l-50 40 53 28 c28 16 61 29 72 29 11 1 45 -24 77 -56z m-247 -26
c181 -86 288 -283 257 -472 -50 -304 -365 -475 -636 -345 -115 54 -194 145
-236 271 -19 54 -21 80 -18 160 4 81 10 107 36 163 35 75 115 165 180 203 81
47 148 64 249 60 80 -4 101 -9 168 -40z m-662 -324 c-12 -73 -12 -96 3 -197 6
-35 4 -38 -12 -31 -11 4 -39 14 -63 21 -25 8 -49 20 -53 27 -8 12 -9 173 -1
194 3 7 29 19 58 28 30 8 57 20 60 25 17 28 20 2 8 -67z m1016 41 c25 -8 49
-20 53 -27 10 -15 10 -178 0 -194 -6 -10 -123 -55 -129 -49 -1 1 3 22 9 46 10
45 5 184 -8 229 -6 21 -5 23 12 16 10 -4 39 -14 63 -21z m-934 -410 c21 -30
65 -76 97 -101 32 -25 58 -49 58 -52 -1 -8 -94 -51 -111 -51 -8 0 -46 31 -84
70 l-69 70 29 60 c17 33 33 60 36 60 3 0 23 -25 44 -56z m852 12 c43 -67 42
-74 -41 -155 l-76 -73 -47 27 c-68 39 -68 40 -31 65 51 35 97 81 129 128 17
23 33 42 37 42 4 0 17 -16 29 -34z m-497 -212 c38 -4 89 -2 119 5 30 6 55 10
57 9 3 -4 -23 -105 -31 -118 -3 -6 -50 -10 -105 -10 -106 0 -130 10 -130 53 0
12 -7 35 -15 51 -15 28 -15 28 12 22 16 -3 57 -9 93 -12z"/>
<path d="M1174 1241 c-114 -54 -169 -150 -162 -286 2 -41 6 -76 9 -79 3 -3 20
0 37 6 28 11 35 10 59 -8 37 -28 43 -84 13 -112 l-21 -20 58 -28 c81 -40 184
-40 259 -1 64 32 127 103 148 164 16 45 22 173 10 186 -3 3 -17 -7 -30 -23
-81 -95 -234 -32 -234 97 0 41 30 100 56 110 30 11 -8 23 -76 23 -51 0 -78 -6
-126 -29z m120 -44 c-20 -107 9 -177 91 -217 46 -22 66 -23 149 -4 l28 7 -7
-44 c-15 -87 -80 -171 -159 -203 -48 -20 -130 -23 -179 -7 -37 12 -37 13 -36
66 2 73 -39 125 -100 125 -33 0 -44 26 -38 86 12 120 118 222 238 231 20 2 21
-1 13 -40z"/>
</g>
</svg>
